<svg id="BSWH_Logo" data-name="BSWH Logo" xmlns="http://www.w3.org/2000/svg" viewBox="0 0 524.06 93.72"><defs><style>.cls-1{fill:#fff;}</style></defs><path class="cls-1" d="M129.78,69.85c0-4.45-.24-5.59-3-5.83l-1.92-.18a1,1,0,0,1,.06-1.5c3.24-.31,7.33-.49,12.93-.49,3.78,0,7.39.31,10.1,1.69a7.9,7.9,0,0,1,4.57,7.52c0,4.33-2.53,6.55-6.13,8.23,0,.6.48.78,1.14.91a9.94,9.94,0,0,1,8.06,10c0,7-5.17,11.67-16,11.67-1.74,0-4.69-.19-7.22-.19s-4.69.13-6.91.19a1.18,1.18,0,0,1-.12-1.51l1.08-.18c3.19-.54,3.31-1.2,3.31-7.52Zm4.93,8c0,1.69.06,1.8,3.13,1.69,6.13-.25,9.44-2.05,9.44-7.7,0-5.9-4.39-8.12-9-8.12a7.41,7.41,0,0,0-2.77.36c-.6.18-.84.48-.84,1.56Zm0,14c0,2.17.12,5.23,1.26,6.56s2.95,1.68,4.75,1.68c5.35,0,9.45-2.4,9.45-8.42,0-4.75-2.41-10.28-12-10.28-3.25,0-3.49.36-3.49,1.56Z" transform="translate(-22.84 -56.94)"/><path class="cls-1" d="M171.7,89.28c.9-.3,1-.85,1-1.75l.06-2.77c.06-2.22-.66-5.22-4.39-5.22-1.69,0-3.73.84-3.85,2.7-.06,1-.12,1.69-.6,2.05a6.52,6.52,0,0,1-3.43,1.14.76.76,0,0,1-.84-.84c0-3.13,6.79-7.4,11.18-7.4s6.44,2.52,6.26,7l-.36,10.46c-.12,2.77.42,5.23,2.76,5.23a3.5,3.5,0,0,0,1.51-.36c.3-.18.6-.42.78-.42s.42.36.42.78a6.32,6.32,0,0,1-5.05,2.65,4.78,4.78,0,0,1-3.91-1.87c-.24-.36-.6-.84-1-.84a9.21,9.21,0,0,0-2.35,1.2,8.79,8.79,0,0,1-4.33,1.51,6.19,6.19,0,0,1-4.21-1.39A5.62,5.62,0,0,1,159.55,97c0-2.34,1.14-3.72,5-5.11ZM168,99.86a6.79,6.79,0,0,0,3.66-1.5c.73-.72.73-1.56.79-2.83l.12-3.55c0-.66-.24-.78-.6-.78a11.37,11.37,0,0,0-2.47.6c-3.55,1.2-5.29,2.11-5.29,4.45A3.63,3.63,0,0,0,168,99.86" transform="translate(-22.84 -56.94)"/><path class="cls-1" d="M182.22,113a2.24,2.24,0,0,1,2.4-2.41h1.15a2.18,2.18,0,0,0,2-1.08A27.33,27.33,0,0,0,190.7,104a9.08,9.08,0,0,0,.6-2.59c0-1.2-.24-1.92-1-4.14l-4.69-12.87c-1-2.83-1.45-4.27-3.55-4.7l-1.5-.3c-.36-.3-.3-1.32.18-1.5,1.92.12,3.72.18,5.71.18,1.62,0,3.31-.06,5.23-.18.48.18.54,1.2.12,1.5l-1.5.3c-.84.19-1.33.36-1.33.79a45.64,45.64,0,0,0,1.75,5.65l1.92,5.53a33.64,33.64,0,0,0,1.75,4.27,29.06,29.06,0,0,0,2.22-4.45l2-4.75a28.09,28.09,0,0,0,2.1-6c0-.42-.36-.84-1.44-1l-1.87-.3c-.42-.3-.36-1.32.12-1.5,1.93.12,3.73.18,5.3.18s2.88-.06,4.57-.18a1,1,0,0,1,.12,1.5l-1,.19c-2,.35-3.06,2.1-5.11,6.37L198,92.82c-2,4-6.38,13.33-9.33,19.89-1,2.28-2.46,2.82-3.84,2.82a2.41,2.41,0,0,1-2.65-2.58" transform="translate(-22.84 -56.94)"/><path class="cls-1" d="M213.61,95c0,4.33.12,4.93,2.29,5.23l1.44.18a1.06,1.06,0,0,1-.12,1.51c-2-.12-3.73-.19-5.83-.19s-4,.07-5.78.19a1.06,1.06,0,0,1-.12-1.51l1.39-.18c2.22-.3,2.28-.9,2.28-5.23V67.81c0-3.55-.06-3.91-1.86-5l-.6-.36a.9.9,0,0,1,0-1.21,42.64,42.64,0,0,0,6.49-2.52.66.66,0,0,1,.6.36c-.06,1.8-.18,4.81-.18,7.46Z" transform="translate(-22.84 -56.94)"/><path class="cls-1" d="M244.34,89.64c0,7.51-5.17,12.93-12.69,12.93-6.91,0-12.33-4.87-12.33-12.39a12.64,12.64,0,0,1,12.81-13,12,12,0,0,1,12.21,12.45M231.41,79c-4,0-6.91,3.79-6.91,10.41,0,5.47,2.46,11.36,7.75,11.36s6.92-5.53,6.92-10.16c0-5.11-2-11.61-7.76-11.61" transform="translate(-22.84 -56.94)"/><path class="cls-1" d="M250.84,84.47c0-2.35,0-2.65-1.63-3.73l-.54-.36a.83.83,0,0,1,.06-1.09,46.67,46.67,0,0,0,6.08-2.94c.3.06.48.18.48.42v3.49q0,.45.18.54c2.1-1.75,4.39-3.61,6.61-3.61a2.49,2.49,0,0,1,2.71,2.41,2.67,2.67,0,0,1-2.59,2.76,2.3,2.3,0,0,1-1.32-.42,4.92,4.92,0,0,0-2.65-1,2.66,2.66,0,0,0-2.16,1.2c-.6.84-.78,2.58-.78,4.63V95c0,4.33.12,5.05,2.4,5.23l2.17.18a1.06,1.06,0,0,1-.12,1.51c-2.83-.12-4.57-.19-6.68-.19s-4,.07-5.53.19a1.06,1.06,0,0,1-.12-1.51l1.14-.18c2.23-.36,2.29-.9,2.29-5.23Z" transform="translate(-22.84 -56.94)"/><path class="cls-1" d="M277.28,102.69a18.76,18.76,0,0,1-9.38-2.23c-.72-1.32-1.51-5.59-1.63-8.41.3-.43,1.21-.55,1.45-.19.9,3.07,3.36,9,10.34,9,5.05,0,7.52-3.3,7.52-6.91,0-2.65-.54-5.6-4.93-8.42l-5.72-3.73c-3-2-6.49-5.41-6.49-10.34,0-5.72,4.45-10.35,12.27-10.35a23.28,23.28,0,0,1,5.59.78,8.14,8.14,0,0,0,2.1.37,26.28,26.28,0,0,1,1.09,7.33c-.24.36-1.21.54-1.51.18-.78-2.88-2.4-6.79-8.18-6.79s-7.15,3.91-7.15,6.67c0,3.49,2.89,6,5.11,7.4l4.81,3c3.79,2.35,7.52,5.84,7.52,11.55,0,6.62-5,11.13-12.81,11.13" transform="translate(-22.84 -56.94)"/><path class="cls-1" d="M313.78,78.21a3.43,3.43,0,0,1,.91,2.41c0,1.08-.6,2.22-1.33,2.22a1,1,0,0,1-.84-.42,8.22,8.22,0,0,0-6-3.19c-4.21,0-8.3,3.31-8.3,9.69,0,4.69,3.24,10.28,9.68,10.28a7.34,7.34,0,0,0,6.68-3.61,1,1,0,0,1,1.08.84,11,11,0,0,1-10,6.14,11.67,11.67,0,0,1-8.24-3.07,11.94,11.94,0,0,1-3.49-8.9c0-6.5,4.57-13.41,14.55-13.41a15,15,0,0,1,5.35,1" transform="translate(-22.84 -56.94)"/><path class="cls-1" d="M341.39,89.64c0,7.51-5.17,12.93-12.69,12.93-6.92,0-12.33-4.87-12.33-12.39a12.63,12.63,0,0,1,12.81-13,12,12,0,0,1,12.21,12.45M328.46,79c-4,0-6.92,3.79-6.92,10.41,0,5.47,2.47,11.36,7.76,11.36s6.92-5.53,6.92-10.16c0-5.11-2.05-11.61-7.76-11.61" transform="translate(-22.84 -56.94)"/><path class="cls-1" d="M352.82,80.56c-1,0-1.09.18-1.09,1.44V93.25c0,3.48.42,6.67,4.39,6.67a4.64,4.64,0,0,0,1.63-.3c.54-.18,1.32-.84,1.5-.84.48,0,.72.66.6,1a8.32,8.32,0,0,1-6.31,2.77c-5.17,0-6.26-2.89-6.26-6.5V82.3c0-1.62-.06-1.74-1.26-1.74h-1.68a1,1,0,0,1-.18-1.27A12.1,12.1,0,0,0,348,77.43a14.72,14.72,0,0,0,2.52-3.55c.3-.12,1-.12,1.26.3v2.71c0,1.08.06,1.14,1.09,1.14h6.67a1.93,1.93,0,0,1,.06,2.53Z" transform="translate(-22.84 -56.94)"/><path class="cls-1" d="M371,80.56c-1,0-1.09.18-1.09,1.44V93.25c0,3.48.43,6.67,4.39,6.67a4.59,4.59,0,0,0,1.63-.3c.54-.18,1.32-.84,1.5-.84.48,0,.72.66.6,1a8.32,8.32,0,0,1-6.31,2.77c-5.17,0-6.26-2.89-6.26-6.5V82.3c0-1.62-.06-1.74-1.26-1.74H362.5a1,1,0,0,1-.18-1.27,12.1,12.1,0,0,0,3.85-1.86,14.72,14.72,0,0,0,2.52-3.55c.3-.12,1-.12,1.26.3v2.71C370,78,370,78,371,78h6.67a1.93,1.93,0,0,1,.06,2.53Z" transform="translate(-22.84 -56.94)"/><path class="cls-1" d="M388,76.67a7.41,7.41,0,0,1,7.54-7.43c2.82,0,5.6,1.7,5.6,4.45a4.41,4.41,0,0,1-4.1,4.24c-.22,0-1.15,0-.49-1a2.81,2.81,0,0,0,.51-2.7A3.53,3.53,0,0,0,393.8,72a3.41,3.41,0,0,0-3.88,3.25c0,2,1.18,3.26,5.29,5.52,5.29,2.87,9.89,5.34,13.83,13.39a8.41,8.41,0,0,0,2-5.68,6.18,6.18,0,0,0-1.33-4,3.18,3.18,0,0,0-2.21-1.21,3.57,3.57,0,0,0-2.95.93.73.73,0,0,1-.8.18c-.39-.14-.47-.75-.38-1.39.27-2,2.36-3.55,5.34-3.55a17.09,17.09,0,0,1,3,.39,15.07,15.07,0,0,0,2.31.34,1.45,1.45,0,0,0,1.42-.61s.15-.25.36-.25a.74.74,0,0,1,.67.43c0,2.26-1.28,3.55-4.15,4.34a7.82,7.82,0,0,1,.9,3.89A11.11,11.11,0,0,1,410,95.7c1.8,3.32,3.55,4.56,6.48,4.56a4.55,4.55,0,0,0,1.57-.22,4.16,4.16,0,0,1,1-.23c.28,0,.39.11.39.4,0,1.12-2.53,2-5.8,2-3.09,0-4.67-.68-7.32-3-4,2.31-6.53,3.1-10,3.1-7.26,0-12.89-4.73-12.89-10.81,0-6.36,4.79-8.69,6.93-9.59C388.62,80,388,78.53,388,76.67m3.66,6.42c-2.42.51-3.55,2-3.55,4.9,0,6.19,5.19,11.6,11,11.6a11.79,11.79,0,0,0,6.08-1.69,29.1,29.1,0,0,1-2.6-3.44l-1.29-1.86A31.28,31.28,0,0,0,393,84.05Z" transform="translate(-22.84 -56.94)"/><path class="cls-1" d="M410.94,63.3a1,1,0,0,1,.18-1.44c1.62.11,4.33.17,6.19.17,1.68,0,4.75-.06,6.85-.17.55.17.49,1,.13,1.44l-1.39.12c-1.26.12-2,.48-2,1,0,.72,1.26,3.79,3.13,8.06,3.36,7.52,6.91,15,10.4,22.43,1.44-3,3.07-6.37,4.63-9.74a11.09,11.09,0,0,0,1-2.47,5.2,5.2,0,0,0-.48-1.56c-2.11-4.81-4.33-9.62-6.62-14.44-.89-1.86-1.8-3.12-3.84-3.3l-1.45-.12a.93.93,0,0,1,.12-1.44c1.75.11,4,.17,6.44.17,3,0,5.23-.06,6.61-.17.43.17.48,1,.12,1.44l-1.56.12c-2.35.18-2.41.6-1.26,3.3,1.26,3,2.94,6.74,4.63,10.47,1.14-2.35,2.22-4.63,3.55-7.88,2.16-5.11,1.86-5.77-.06-5.89l-1.81-.12c-.42-.6-.3-1.27.12-1.44,1.63.11,3.43.17,5.65.17,2,0,4.39-.06,5.78-.17.42.17.48,1,.12,1.44l-1.75.12c-2.52.18-3.6,2.88-4.93,5.35-1.26,2.23-3.78,7.46-4.69,9.56a4.9,4.9,0,0,0-.54,1.44,4.52,4.52,0,0,0,.42,1.45c2.05,4.63,4.15,9.14,6.14,13.71,1.86-4.21,3.66-8.42,5.41-12.69,1.2-2.89,4.39-10.88,4.81-12a36.4,36.4,0,0,0,1.8-5.47c0-.84-.72-1.32-2-1.38l-1.74-.12c-.49-.54-.43-1.21.06-1.44,2.28.11,3.91.17,5.77.17,2.28,0,4-.06,5.59-.17.48.17.54,1,.12,1.44l-1.14.12c-3,.3-3.55,2.1-7.16,10.46L457.9,84c-2.64,6.14-5,12-7.51,18.47a1.32,1.32,0,0,1-.73.18,1.92,1.92,0,0,1-.84-.18c-1.92-5.36-5.41-12.87-7.27-17.08A182.81,182.81,0,0,0,434,102.51a1.28,1.28,0,0,1-.72.18,2.41,2.41,0,0,1-.9-.18c-1-2.53-3.37-7.94-4.15-9.68-3.85-8.36-7.58-16.72-11.49-25.08-1.14-2.47-1.87-4.09-4.39-4.33Z" transform="translate(-22.84 -56.94)"/><path class="cls-1" d="M469,67.81c0-3.81-.26-4.29-1.12-4l-1.34-1.36c-.31-.19-2.27-.43-1.51-.43,4.81,0,5.9-2.05,8-3.3a.4.4,0,0,1,.6.36c-.08,1.8-.18,4.81-.18,7.45V79.17c0,.54.06,1,.24,1.15a13.63,13.63,0,0,1,8.12-3.13c5.71,0,7.76,3.55,7.76,7.76V95c0,4.33.12,5,2.28,5.23l1.63.18a1.06,1.06,0,0,1-.12,1.51c-2.17-.12-3.91-.19-6-.19s-4,.07-5.59.19a1.06,1.06,0,0,1-.12-1.51l1.2-.18c2.23-.36,2.29-.9,2.29-5.23v-8.6c0-3.85-1.87-6.43-5.72-6.43a7.23,7.23,0,0,0-4.69,1.62c-1.08.9-1.26,1.2-1.26,3.31V95c0,4.33.12,4.93,2.29,5.23l1.26.18c.42.24.3,1.32-.12,1.51-1.8-.12-3.55-.19-5.65-.19s-4,.07-5.9.19a1.06,1.06,0,0,1-.12-1.51l1.5-.18C469,100,469,99.32,469,95Z" transform="translate(-22.84 -56.94)"/><path class="cls-1" d="M499.1,84.46c0-2.34,0-2.64-1.62-3.72l-.54-.36a.81.81,0,0,1,.06-1.09,41.31,41.31,0,0,0,6.19-2.94.55.55,0,0,1,.6.36c-.12,2.1-.24,5-.24,7.45V95c0,4.33.12,4.93,2.29,5.23l1.26.18a1.06,1.06,0,0,1-.12,1.51c-1.8-.12-3.55-.19-5.65-.19s-4,.07-5.66.19a1.06,1.06,0,0,1-.12-1.51l1.27-.18c2.22-.3,2.28-.9,2.28-5.23Zm5-15.21a3.13,3.13,0,0,1-6.25.12,3.12,3.12,0,0,1,3.25-3.25,3,3,0,0,1,3,3.13" transform="translate(-22.84 -56.94)"/><path class="cls-1" d="M518,80.56c-1,0-1.08.18-1.08,1.44V93.25c0,3.48.42,6.67,4.39,6.67a4.68,4.68,0,0,0,1.63-.3c.53-.18,1.32-.84,1.5-.84.48,0,.72.66.6,1a8.34,8.34,0,0,1-6.32,2.77c-5.17,0-6.25-2.89-6.25-6.5V82.3c0-1.62-.06-1.74-1.26-1.74h-1.68a1,1,0,0,1-.19-1.27,11.88,11.88,0,0,0,3.85-1.86,14.74,14.74,0,0,0,2.53-3.55c.3-.12,1-.12,1.26.3v2.71C517,78,517,78,518,78h6.68a1.93,1.93,0,0,1,.06,2.53Z" transform="translate(-22.84 -56.94)"/><path class="cls-1" d="M531.94,86.33c-1.57,0-1.63.12-1.63,1.62,0,6.08,3.55,11.25,10,11.25,2,0,3.67-.6,5.54-3a.79.79,0,0,1,1.08.72,10.51,10.51,0,0,1-9.44,5.6,10.79,10.79,0,0,1-8.72-4,12.74,12.74,0,0,1-2.53-7.82c0-7.4,4.87-13.59,12.09-13.59,5.17,0,8.54,3.55,8.54,7.16a3.71,3.71,0,0,1-.24,1.56c-.18.36-1,.42-3.55.42Zm3.72-1.8c4.45,0,5.78-.25,6.26-.61.18-.12.36-.36.36-1.14,0-1.68-1.14-3.79-4.63-3.79S531,82.24,531,84.22c0,.13,0,.31.42.31Z" transform="translate(-22.84 -56.94)"/><path class="cls-1" d="M132.12,121.93v5.9h6.22v-5.9h3.37V137.3h-3.37v-6.63h-6.22v6.63h-3.38V121.93Z" transform="translate(-22.84 -56.94)"/><path class="cls-1" d="M167.47,121.93v2.84h-8.11v3.3h7.44v2.62h-7.44v3.77h8.28v2.84H156V121.93Z" transform="translate(-22.84 -56.94)"/><path class="cls-1" d="M188.87,121.93l5.74,15.37h-3.5L190,133.87H184.2L183,137.3h-3.4l5.81-15.37Zm.19,9.43-1.93-5.64h0l-2,5.64Z" transform="translate(-22.84 -56.94)"/><path class="cls-1" d="M210.62,121.93v12.53h7.49v2.84H207.24V121.93Z" transform="translate(-22.84 -56.94)"/><path class="cls-1" d="M230.09,124.77v-2.84h12.58v2.84h-4.6V137.3h-3.38V124.77Z" transform="translate(-22.84 -56.94)"/><path class="cls-1" d="M259.11,121.93v5.9h6.22v-5.9h3.37V137.3h-3.37v-6.63h-6.22v6.63h-3.38V121.93Z" transform="translate(-22.84 -56.94)"/><path class="cls-1" d="M73,140.89c.4,0,.75,0,.75-.51s-.35-.46-.67-.46h-.64v1Zm-.56,1.77H72v-3.14h1.18c.73,0,1.09.27,1.09.89a.82.82,0,0,1-.8.87l.88,1.38h-.53L73,141.3h-.54Zm.57.7a2.27,2.27,0,1,0-2.19-2.28A2.18,2.18,0,0,0,73,143.36m-2.73-2.28A2.72,2.72,0,1,1,73,143.82a2.71,2.71,0,0,1-2.73-2.74" transform="translate(-22.84 -56.94)"/><polygon class="cls-1" points="14.29 47.88 43.78 47.88 27.71 63.68 14.29 63.68 14.29 47.88"/><polygon class="cls-1" points="45.02 93.72 45.02 48.48 29.5 65.18 29.5 93.72 45.02 93.72"/><polygon class="cls-1" points="92.34 47.88 48.57 47.88 64.64 63.68 92.34 63.68 92.34 47.88"/><polygon class="cls-1" points="47.33 79.17 47.33 48.48 62.84 65.18 62.84 79.17 47.33 79.17"/><polygon class="cls-1" points="0 45.83 43.78 45.83 27.41 30.04 0 30.04 0 45.83"/><polygon class="cls-1" points="45.02 14.55 45.02 45.23 29.5 28.54 29.5 14.55 45.02 14.55"/><polygon class="cls-1" points="78.05 45.83 48.57 45.83 64.64 30.04 78.05 30.04 78.05 45.83"/><polygon class="cls-1" points="47.33 0 47.33 45.24 62.84 28.54 62.84 0 47.33 0"/></svg>