<?xml version="1.0" encoding="UTF-8"?>
<svg id="Layer_1" data-name="Layer 1" xmlns="http://www.w3.org/2000/svg" viewBox="0 0 382.94 260.63">
  <defs>
    <style>
      .cls-1 {
        fill: #4c4847;
      }
    </style>
  </defs>
  <g>
    <path class="cls-1" d="M220.36,204.88c.04-4.02-3.12-5.85-6.27-5.87l-5.53-.05.38,2.88-.14,16.04,3.46.03-.3-2.4.04-4.43c1.12,0,1.57.01,1.86,0l4.73,6.75.09.14,4.03.04-5.78-7.81c2.11-1.11,3.41-3.11,3.43-5.3ZM212.09,201.68h1.49c1.64.03,3.53.86,3.51,3.17-.02,1.9-1.69,3.55-3.57,3.54h-1.49s.06-6.71.06-6.71Z"/>
    <polygon class="cls-1" points="236.67 209.79 241.84 209.83 242.59 207.14 236.69 207.09 236.73 201.9 243.37 201.96 243.4 199.26 233.21 199.17 233.6 202.05 233.45 218.09 242.9 218.17 243.66 215.49 236.62 215.42 236.67 209.79"/>
    <path class="cls-1" d="M260.75,207.36c-1.76-.99-3.28-1.85-3.27-3.51.01-1.42,1.23-2.17,2.37-2.16,1.97.02,3.56,1.14,3.64,1.2l.31.77,1.11-3.04-.22-.14c-1.39-.9-3.03-1.38-4.74-1.4-3.24-.03-5.7,2.33-5.73,5.49-.03,2.83,2.4,4.19,4.54,5.39,1.81,1.01,3.37,1.89,3.35,3.4-.02,1.86-1.4,2.7-2.68,2.68-2.56-.02-4.49-2.34-4.51-2.37l-.48-.59-.09.75c-.09.75-.23,1.93-.28,2.26l-.14.13.18.22c.07.09,1.81,2.19,5.2,2.22,3.5.03,5.87-2.24,5.9-5.66.03-3.12-2.37-4.47-4.48-5.67Z"/>
    <path class="cls-1" d="M284.3,199.29c-4.85-.04-8.69,4.3-8.74,9.88-.05,5.77,3.25,9.68,8.2,9.72,4.88.04,8.74-4.31,8.79-9.91.05-5.94-3.11-9.65-8.26-9.7ZM284.01,216.26c-2.99-.03-5.13-3.07-5.09-7.22.04-4.16,2.23-7.16,5.22-7.13,2.97.03,5.1,3.07,5.06,7.22-.04,4.16-2.22,7.16-5.19,7.13Z"/>
    <path class="cls-1" d="M316.07,205.73c.04-4.02-3.12-5.85-6.27-5.87l-5.53-.05.38,2.88-.14,16.04,3.46.03-.3-2.4.04-4.43c1.12,0,1.57.01,1.86,0l4.73,6.75.09.14,4.03.04-5.78-7.81c2.11-1.11,3.41-3.11,3.43-5.3ZM307.79,202.53h1.49c1.63.03,3.53.86,3.51,3.17-.02,1.9-1.69,3.55-3.57,3.54h-1.49s.06-6.71.06-6.71Z"/>
    <polygon class="cls-1" points="325.81 202.74 331.64 202.79 331.5 218.95 334.96 218.98 334.66 216.58 334.78 202.82 340.78 202.87 340.8 200.12 325.83 199.99 325.81 202.74"/>
  </g>
  <g>
    <path class="cls-1" d="M209.15,180.01c.08-9.55-13.66-9.09-13.6-16.1.03-2.82,2.43-4.36,4.72-4.34,3.7.03,6.8,2.21,6.9,2.45l1.3-3.55c-1.45-.94-4.17-2.33-8.02-2.36-5.51-.05-9.44,4.06-9.48,9.08-.08,8.62,13.9,8.99,13.85,15.42-.03,3.41-2.48,5.29-5.26,5.26-4.82-.04-8.34-4.36-8.34-4.36,0,0-.48,4.14-.52,4.18,0,0,2.94,3.63,8.69,3.68,5.94.05,9.73-3.86,9.78-9.36Z"/>
    <path class="cls-1" d="M223.74,176.97c7.02.06,12.22-4.76,12.27-10.32.06-6.58-5.08-9.69-10.44-9.74l-9.06-.08.59,4.49-.24,27.57,4.87.04-.45-3.66.07-8.33,2.39.02ZM221.5,160.49l3.17.03c3.6.03,6.75,2.1,6.72,6.1-.04,4.19-3.23,6.79-6.83,6.76l-3.17-.03.11-12.86Z"/>
    <path class="cls-1" d="M260.05,166.87c.06-6.58-5.08-9.69-10.44-9.74l-9.06-.08.59,4.49-.24,27.57,4.87.04-.45-3.66.07-8.33c2.87.03,3.56.03,4.09-.01l8.47,12.11,5.65.05-9.87-13.34c3.87-1.77,6.28-5.3,6.32-9.1ZM248.59,173.59l-3.17-.03.11-12.86,3.17.03c3.6.03,6.75,2.1,6.72,6.1-.03,3.7-3.23,6.79-6.83,6.76Z"/>
    <polygon class="cls-1" points="271.65 157.32 266.64 157.28 267.23 161.77 266.99 189.34 271.86 189.38 271.4 185.72 271.65 157.32"/>
    <polygon class="cls-1" points="299.66 177.84 281.96 157.41 278.99 157.39 279.59 161.87 279.34 189.45 283.83 189.49 283.37 185.83 283.54 165.86 285.61 169.04 303.7 189.66 305.99 189.68 305.73 186.03 305.98 157.62 301.35 157.58 301.94 162.07 301.78 181.02 299.66 177.84"/>
    <path class="cls-1" d="M325.8,160.82c3.22.03,5.88,1.37,8.15,3.77l2.27-3.29c-2.85-2.66-6.4-4.05-10.44-4.09-8.57-.08-15.31,7.17-15.4,17.16-.09,10.42,7.17,16.04,14.72,16.11,6.19.05,11.12-1.75,11.12-1.75l.08-14.61-5.02-.04.8,3.61-.12,8.53s-3.32.8-5.95.78c-5.55-.05-11.01-5.16-10.94-13.06.06-6.77,4.7-13.16,10.74-13.11Z"/>
    <path class="cls-1" d="M345.07,165.23c.03-2.82,2.43-4.36,4.72-4.34,3.7.03,6.8,2.21,6.9,2.45l1.3-3.55c-1.45-.94-4.17-2.33-8.02-2.36-5.51-.05-9.44,4.06-9.48,9.08-.08,8.62,13.9,8.99,13.85,15.42-.03,3.41-2.48,5.29-5.26,5.26-4.82-.04-8.34-4.36-8.34-4.36,0,0-.48,4.14-.52,4.18,0,0,2.94,3.63,8.69,3.68,5.94.05,9.73-3.86,9.78-9.36.08-9.55-13.66-9.09-13.6-16.1Z"/>
  </g>
  <path class="cls-1" d="M362.09,113.85s-35.47,5.67-37.26,6.54c-1.8.87,1.8-.87,1.8-.87,0,0-4.3,1.29-.28-6.73,0,0,1.66-3.5,4.29-9.02,15.26-17.77,39.34-49.64,43.29-77.74,0,0-1.08-7.91-7.37-1.02,0,0-36.36,57.93-46.21,86.43-5.99,6.04-12.07,10.58-15.78,9.06,0,0,10.67-16.19,2.59-16.18,0,0-10.48,22.86-19.96,18.05,0,0-4.6-6.23,19.16-19.77,0,0,4.01-2.83-4.23-3.98,0,0-13.9,5.29-21.88,13.82,0,0-8.07,8.23-13.15,11.54.26-6.99,3.12-25.39,21.54-61.58,20.47-3.55,44.82-7.5,46.43-6.49,0,0,8.69-.87,4.38-8.44,0,0-16.79,1.32-29.27,3.29,0,0-7.43,1.59-17.42,3.75,4-7.5,8.61-15.66,13.94-24.57,0,0,.09-5.08-2.17-4.86,0,0-9.12,12.97-19.47,31.1-14.76,3.22-32.03,7.06-39.94,9.08l-1.65.74s-62.65,23.53-64.89,26.71c0,0-.27,4.21,4.45,1.12,0,0,51.42-23.35,77.32-26.37,0,0,8.87-1.64,20.49-3.69-9.08,16.7-18.28,36.45-22.58,54.28-4.35,4.37-9.6,7.25-13.73,9.02.75-1.81.32-3.51-1.98-4.93,0,0-6.46-2.53-9.53-6.2,9.41-4.45,20.03-10.67,20.61-16.32,0,0-8.13-7.92-31.88,11.32,0,0-6.48,4.26-5.67,10.57-9.6,6.05-23.76,15.33-33.42,23.22,9.94-13.59,17.33-23.38,17.33-23.38,11.53-16.29-1.93-12.53-1.93-12.53-21.82,43.47-31.59,36.07-31.59,36.07-4.01-.16,10.88-23.87,10.88-23.87-.71-12.03-10.13-6.24-10.13-6.24-11.65,10.81-19.23,16.79-24.15,20.04-.68-.89.21-3.1-.58-4.71-1.41-2.89-4.83-3.09-8.58-2.84-6.81,4.11-9.84,8.45-15.45,13.15-.41-3.48-2.12-6.52-4.3-9.84-5.84-1.18-3.23-.03-11.66,6.74-.02.01-.03.02-.05.04-.24.15-.77.53-1.77,1.27,0,0-2.04,2.89.37,3.05,9.06-7.33,7.76-5.12,7.22-5.3l1.55.49c2.75,1.93.14,3.73-1.01,6.43-3.76,4.8-5.37,9.72-9.55,15.32-.61,2.49-5.73,9-4.22,11.62,5.27,1.22,2.26.87,5.27,1.22,1.07.12,1.84.1,2.93-.62,2.38-1.84,3.49-3.83,4.8-6.23,2.23-3.99,3.99-7.77,6.35-11.59,1.91-3.1,3.1-3.98,4.79-7.23,3.91-5.58,6.73-9.36,11.56-9.17,2.78,2.79-2.14,4.43-.93,7.16,2.1,1.42,5.47.71,7.43-1.18,7.62-7.44,15.28-11.82,24.23-17.81,4.48-1.65,1.26,4.85,1.26,4.85-28.14,45.97,7.85,20.61,7.85,20.61-63.4,82.44-38.94,71.6-38.94,71.6,2.88-7.95,15.14-26.62,28.5-45.73,12.36-14.07,37.49-41.05,57.14-51.75,1.32.37,5.62,1.48,9.27,1.31,0,0,10.54,1.29-.97,7.33,0,0-16.1,8.78-18.58,10.82,0,0-2.72,7.44,11.54-.27,0,0,13.07-5.23,20.79-10.95,9.26-5.03,14.39-6.33,17.23-6.19-.02.12-.04.24-.06.36,0,0,4.3,9.13,10.57.77,2.31-1.58,5.69-4.59,10.64-10.02,0,0,7.28-5.94,2.48.24,0,0-6.83,10.91,4.25,12.31,0,0,2.73,2.71,13.9-7.16,0,0-4.8,15.1,19.6-5.31,0,0,.27-.27.74-.75-1.84,7.49-.68,11.54,5.41,9.46,0,0,35.09-12.16,40.47-11.03,0,0,5.95-1.85-2.48-1.48ZM150.07,131.38c-1.79,1.24-3.63,2.42-5.29,3.13,1.78-1.06,3.6-2.14,5.29-3.13ZM238.55,104.96s15.36-4.48-4.12,6.96l-2.77,1.75c-.9-2.66.47-5.69,6.88-8.71ZM368.12,30.82s3.92,7.46-29.74,58.76c0,0-1.03,1.46-2.73,3.73,11.33-23.52,29.36-60.25,32.47-62.49Z"/>
  <path class="cls-1" d="M101,187.93s-49.11,33.1-42.88-13.02c0,0,2.25-30.16,29.21-61.32,5.17-.48,9.89-.87,12.88-.98,0,0,60.73-8.05,71.98-27.39,0,0,7.02-11.48-15.75-14.75,0,0-37.14,3.55-76.04,38.35-3.56.27-7.24.51-11.11.71,0,0-60.84,6.34-66.11,34.47,0,0,.76,15.73,15.98,13.09,0,0-9.86-12.93,3.88-26.06,0,0,19.54-13.55,36.91-14.54,0,0,6.2-.72,13.91-1.55-2.82,2.78-5.64,5.72-8.45,8.86,0,0-36.54,37.53-19.19,95.51,0,0,13.06,16.69,58.49-25.66,0,0,17.91-13.95,16.18-21.8,0,0-.76-2.02-19.88,16.07ZM104.01,97.16s44.68-29.19,59.81-19.49c0,0,2.66,22.28-71.13,30.05,3.43-3.55,7.19-7.08,11.33-10.56Z"/>
</svg>