<?xml version="1.0" encoding="UTF-8"?>
<svg id="Layer_1" xmlns="http://www.w3.org/2000/svg" version="1.1" viewBox="0 0 369 100.6">
  <!-- Generator: Adobe Illustrator 29.5.1, SVG Export Plug-In . SVG Version: 2.1.0 Build 141)  -->
  <defs>
    <style>
      .st0 {
        fill: #fbc24f;
      }

      .st1 {
        fill: #1f336b;
      }
    </style>
  </defs>
  <g>
    <g>
      <polygon class="st0" points="20.4 7.6 90 7.6 90 77.2 20.4 7.6"/>
      <polygon class="st1" points="4.5 23.5 74 23.5 74 93.1 4.5 23.5"/>
    </g>
    <g>
      <path class="st1" d="M132.3,33.2c7.2,0,12.3-5.4,12.3-13s-5-13-12.2-13-12.2,5.4-12.2,13,5,13,12.2,13ZM125,20.2c0-5.1,2.9-8.5,7.3-8.5s7.3,3.3,7.3,8.5-2.9,8.5-7.3,8.5-7.3-3.3-7.3-8.5Z"/>
      <rect class="st1" x="148" y="7.6" width="4.7" height="25.2"/>
      <polygon class="st1" points="160.9 15.7 172.3 32.7 172.3 32.8 176.9 32.8 176.9 7.6 172.2 7.6 172.2 24.8 161 7.7 160.9 7.6 156.3 7.6 156.3 32.8 160.9 32.8 160.9 15.7"/>
      <polygon class="st1" points="186.6 32.8 191.3 32.8 191.3 12 198.6 12 198.6 7.6 179.4 7.6 179.4 12 186.6 12 186.6 32.8"/>
      <path class="st1" d="M106.7,33.2c-2.4,0-4.4-.6-6-1.9-1.6-1.3-2.8-3.1-3.5-5.6l4.5-1.9c.5,1.5,1.2,2.7,2,3.4.8.7,1.9,1.1,3.1,1.1s2.6-.5,3.5-1.5c.9-1,1.3-2.4,1.3-4.1V7.6h4.9v15.3c0,2.1-.4,3.9-1.2,5.4-.8,1.6-1.9,2.8-3.4,3.6-1.5.9-3.2,1.3-5.1,1.3Z"/>
    </g>
    <g>
      <path class="st1" d="M132.3,37.2c-7.2,0-12.2,5.4-12.2,13s5,13,12.2,13,12.3-5.4,12.3-13-5-13-12.2-13ZM139.6,50.2c0,5.1-2.9,8.5-7.3,8.5s-7.3-3.3-7.3-8.5,2.9-8.5,7.3-8.5,7.3,3.3,7.3,8.5Z"/>
      <path class="st1" d="M160.4,57.1l-7.8-19.3h0c0-.1-4.5-.1-4.5-.1v25.2h4.6v-9.1c0-2.4,0-4.2-.1-5.6l5.8,14.5h0c0,.1,4.3.1,4.3.1l5.9-14.7c0,1.4,0,3.2,0,6.9v7.8h4.6v-25.2h-4.6l-7.9,19.4Z"/>
      <path class="st1" d="M189,57.1l-7.8-19.3h0c0-.1-4.5-.1-4.5-.1v25.2h4.6v-9.1c0-2.4,0-4.2-.1-5.6l5.8,14.5h0c0,.1,4.3.1,4.3.1l5.9-14.7c0,1.4,0,3.2,0,6.9v7.8h4.6v-25.2h-4.6l-7.9,19.4Z"/>
      <rect class="st1" x="205.1" y="37.7" width="4.7" height="25.2"/>
      <path class="st1" d="M225,48.5l-3.9-.8c-2-.5-2.9-1.4-2.9-3s1.6-3.2,4.2-3.2,3.8,1.2,3.9,3.2v.2h4.7v-.2c-.1-4.6-3.4-7.4-8.5-7.4s-9,3.1-9,7.6,2.3,6.4,6.6,7.3l3.9.9c1.9.4,2.7,1.3,2.7,2.9s-1.7,3.1-4.5,3.1-4.3-1.2-4.3-3.2v-.2h-4.7v.2c.1,4.5,3.7,7.4,9.1,7.4s9.2-3.1,9.2-7.8-2.1-6-6.5-7Z"/>
      <path class="st1" d="M245.4,48.5l-3.9-.8c-2-.5-2.9-1.4-2.9-3s1.6-3.2,4.2-3.2,3.8,1.2,3.9,3.2v.2h4.7v-.2c-.1-4.6-3.4-7.4-8.5-7.4s-9,3.1-9,7.6,2.3,6.4,6.6,7.3l3.9.9c1.9.4,2.7,1.3,2.7,2.9s-1.7,3.1-4.5,3.1-4.3-1.2-4.3-3.2v-.2h-4.7v.2c.1,4.5,3.7,7.4,9.1,7.4s9.2-3.1,9.2-7.8-2.1-6-6.5-7Z"/>
      <rect class="st1" x="255.1" y="37.7" width="4.7" height="25.2"/>
      <path class="st1" d="M275.5,37.2c-7.2,0-12.2,5.4-12.2,13s5,13,12.2,13,12.3-5.4,12.3-13-5-13-12.2-13ZM282.8,50.2c0,5.1-2.9,8.5-7.3,8.5s-7.3-3.3-7.3-8.5,2.9-8.5,7.3-8.5,7.3,3.3,7.3,8.5Z"/>
      <polygon class="st1" points="307.2 37.7 307.2 54.8 295.9 37.7 295.9 37.7 291.3 37.7 291.3 62.8 295.9 62.8 295.9 45.7 307.3 62.8 307.3 62.8 311.9 62.8 311.9 37.7 307.2 37.7"/>
      <path class="st1" d="M108.8,63.3c-1.8,0-3.4-.3-4.9-1-1.5-.7-2.9-1.6-4-2.8-1.1-1.2-2-2.6-2.7-4.2-.6-1.6-1-3.3-1-5.2s.3-3.6,1-5.2c.6-1.6,1.5-3,2.7-4.2,1.1-1.2,2.5-2.1,4-2.8,1.5-.7,3.2-1,4.9-1s2.6.2,3.8.6c1.2.4,2.3.9,3.4,1.6,1,.7,1.9,1.6,2.7,2.6l-3.3,3.6c-.9-1.1-1.8-2-3-2.6s-2.3-.9-3.6-.9-2.1.2-3,.6c-.9.4-1.7,1-2.4,1.8s-1.2,1.6-1.6,2.6c-.4,1-.6,2.1-.6,3.3s.2,2.3.6,3.3c.4,1,.9,1.9,1.6,2.6.7.8,1.5,1.3,2.4,1.8.9.4,2,.6,3,.6s2.4-.3,3.5-.8c1.1-.6,2-1.4,2.8-2.4l3.2,3.4c-.7,1-1.6,1.8-2.7,2.5-1,.7-2.2,1.3-3.4,1.6-1.2.4-2.4.6-3.7.6Z"/>
    </g>
    <g>
      <g>
        <rect class="st1" x="97.9" y="67.7" width="4.7" height="25.4"/>
        <polygon class="st1" points="122.2 85 110.8 67.8 110.8 67.7 106.2 67.7 106.2 93 110.8 93 110.8 75.8 122.3 93 122.3 93 126.9 93 126.9 67.7 122.2 67.7 122.2 85"/>
        <polygon class="st1" points="129.4 72.1 136.7 72.1 136.7 93 141.4 93 141.4 72.1 148.8 72.1 148.8 67.7 129.4 67.7 129.4 72.1"/>
        <polygon class="st1" points="151.2 93 167.1 93 167.1 88.6 155.9 88.6 155.9 82.4 165.9 82.4 165.9 78.1 155.9 78.1 155.9 72.1 167.1 72.1 167.1 67.7 151.2 67.7 151.2 93"/>
        <path class="st1" d="M189.5,75.7c0-5-3.4-8-9.2-8h-9.7v25.4h4.7v-9.3h5.1l4.2,9.3h5.2l-4.8-10.3c2.9-1.3,4.4-3.7,4.4-7ZM184.6,75.7c0,2.4-1.5,3.8-4.2,3.8h-5v-7.5h5c2.7,0,4.2,1.4,4.2,3.7Z"/>
        <polygon class="st1" points="208.2 85 196.8 67.8 196.8 67.7 192.1 67.7 192.1 93 196.8 93 196.8 75.8 208.2 93 208.3 93 212.9 93 212.9 67.7 208.2 67.7 208.2 85"/>
        <path class="st1" d="M224.3,67.7l-9.2,25.4h4.9l2-5.8h9.1l2,5.8h5l-9.2-25.4h-4.7ZM226.6,74.2c0,.4.2.7.3,1.1l2.8,7.9h-6.2l2.7-7.8c.1-.4.3-.8.4-1.2Z"/>
        <polygon class="st1" points="233.3 72.1 240.6 72.1 240.6 93 245.4 93 245.4 72.1 252.7 72.1 252.7 67.7 233.3 67.7 233.3 72.1"/>
        <rect class="st1" x="255.1" y="67.7" width="4.7" height="25.4"/>
        <path class="st1" d="M275.6,67.2c-7.2,0-12.3,5.4-12.3,13.1s5,13.1,12.2,13.1,12.4-5.4,12.4-13.1-5.1-13.1-12.3-13.1ZM283,80.4c0,5.2-2.9,8.5-7.3,8.5s-7.3-3.3-7.3-8.5,2.9-8.5,7.3-8.5,7.3,3.3,7.3,8.5Z"/>
        <polygon class="st1" points="307.3 85 296 67.8 295.9 67.7 291.3 67.7 291.3 93.1 295.9 93.1 295.9 75.8 307.4 93 307.4 93.1 312 93.1 312 67.7 307.3 67.7 307.3 85"/>
        <polygon class="st1" points="344.5 88.7 344.5 67.7 339.8 67.7 339.8 93.1 355 93.1 355 88.7 344.5 88.7"/>
      </g>
      <path class="st1" d="M323.7,67.7l-9.2,25.4h4.9l2-5.8h9.1l2,5.8h5l-9.2-25.4h-4.7ZM326,74.2c0,.4.2.7.3,1.1l2.8,7.9h-6.2l2.7-7.8c.1-.4.3-.8.4-1.2Z"/>
    </g>
  </g>
  <g>
    <path class="st1" d="M355,67.7h3.8v.5h-1.6v4.8h-.5v-4.8h-1.6v-.5Z"/>
    <path class="st1" d="M359.6,73v-5.2h.5l1.9,4.6,1.9-4.6h.5v5.2h-.5v-2.5c0-.9,0-1.3,0-1.7l-1.7,4.2h-.5l-1.7-4.1c0,.2,0,.8,0,1.6v2.6h-.5Z"/>
  </g>
</svg>