<svg xmlns="http://www.w3.org/2000/svg" xmlns:xlink="http://www.w3.org/1999/xlink" version="1.1" id="Layer_1" x="0px" y="0px" viewBox="0 0 242 60" style="enable-background:new 0 0 242 60;" xml:space="preserve">
<style type="text/css">
	.st0{fill:none;}
	.st1{fill:#1A3865;}
</style>
<g>
	<g>
		<defs>
			<path id="SVGID_1_" d="M24.6,0.4C12.6,0.4,2.9,9.2,2.9,20c0,10.8,9.7,19.5,21.7,19.5h193.6c12,0,21.7-8.8,21.7-19.5     c0-10.8-9.7-19.5-21.7-19.5H24.6z M4.5,20c0-9.9,9-18,20.1-18h193.6c11.1,0,20.1,8.1,20.1,18c0,9.9-9,18-20.1,18H24.6     C13.5,37.9,4.5,29.9,4.5,20z M213.2,29.7c0.3-0.2,0.4-0.3,0.4-0.6l0-11c-1.9-2.4-2.9-4.9-5.1-6.8l2.9,0c-0.4,0.3-0.5,0.6-0.2,1.1     l3.5,4.9l3.7-4.9c0.3-0.4,0.7-0.8,0.2-1.1l2.2,0c-2.2,2-3.7,4.4-5.6,6.9l0,10.9c0,0.3,0.1,0.4,0.4,0.6H213.2z M116.3,12.3     c0.1,0.4,0.2,1.1,0.2,1.7c-0.9-0.8-1.8-1.2-2.9-1.6c-3.4-0.9-7.4-0.5-9.6,2.4c-1.8,2.4-2.4,5.8-1.3,8.7c1,2.5,2,3.6,4,4.6     c2.5,1.1,6.4,1.7,8.8-0.1l1.4-1c-0.2,1-0.2,1.4-0.2,2c-4.8,1.4-10.9,1.5-14.3-2.6c-2.3-3.1-2.6-7.5-0.8-10.8     c1.8-3,4.6-4.4,7.6-4.5C112.5,11.1,113.9,11.5,116.3,12.3z M188.6,20.3l0,8.4l4.8,0c0.4,0,0.4-0.1,0.8-0.3     c-0.1,0.4-0.2,1-0.6,1.3h-6.9l0.3-0.5l0-17.1c0-0.3,0-0.5-0.4-0.8l6.8,0l0,1.2c-0.3-0.3-0.5-0.3-1-0.3l-3.9,0l0,6.9l4.6,0     c0.6,0,0.7,0,0.8-0.2l0,1.5c-0.1-0.2-0.3-0.2-0.6-0.2L188.6,20.3z M137.1,11.1c2.5,5.7,6.9,16.7,7.2,17.4c0.1,0.3,0.2,0.7,1,1.2     c-0.5,0-3.1,0-3.1,0c0.4-0.5,0.4-1,0.2-1.6l-1.5-3.4l-8.9,0c-0.5,1-1.5,2.9-1.9,4c-0.2,0.5-0.1,0.7,0.1,0.9l-1.9,0     c0,0,0.6-0.6,1-1.3L137.1,11.1z M68.2,28.7c0,0.4,0.2,0.8,0.3,1l-2.2,0c0.2-0.3,0.3-0.6,0.3-1l0-16.9l-0.4-0.5     c3.5,0,7.1-0.7,9.2,2c1,1.4,1,3.8,0,5.3c-1.6,2.1-4.6,2.1-7.2,1.9L68.2,28.7z M79.9,30c-0.5,0-0.9-0.5-0.9-1.1     c0-0.6,0.4-1.1,0.9-1.1c0.5,0,0.9,0.5,0.9,1.1C80.8,29.5,80.4,30,79.9,30z M49.3,30c-0.5,0-0.9-0.5-0.9-1.1     c0-0.6,0.4-1.1,0.9-1.1c0.5,0,0.9,0.5,0.9,1.1C50.2,29.5,49.8,30,49.3,30z M49.3,28.9 M39.4,27.1l7.3-14c0.7-1.3,0.6-1.5,0.5-1.7     l1.7,0l-0.5,0.6l-9.6,17.8l-3.4-6.6L32,29.6l-8.2-16.5c-0.4-0.8-0.5-1.2-1.1-1.8c1.2,0,2.6,0,2.6,0c-0.6,0.5-0.3,0.8,0.2,1.9     L32.5,27l2.5-5.1c-3.5-7.6-3.5-7.5-4.1-8.8c-0.2-0.5-0.6-1.4-1.2-1.8c0.5,0,2.5,0,2.5,0c-0.6,0.6-0.1,1,0.1,1.4l3.7,7.7l3.8-7.4     c0.7-1.3,0.6-1.5,0.6-1.7l1.7,0l-0.4,0.6l-5,9.6C36.6,21.5,38.3,25.3,39.4,27.1z M165.9,20.2c2.5,3,5.1,7.1,8.2,9.4     c-3.3,0.4-5.4-3.4-6.7-5.1c-1.1-1.4-1.8-2.5-3.1-3.5c-0.2-0.2-0.5-0.3-0.7-0.4v0c-0.9,0-1.7,0-2.5-0.1l0,8.2c0,0.4,0.2,0.8,0.3,1     l-2.2,0c0.2-0.3,0.3-0.6,0.3-1l0-16.9l-0.4-0.5c3.5,0,7.1-0.7,9.2,2c1,1.4,1,3.8,0,5.3C167.7,19.4,166.9,19.9,165.9,20.2     L165.9,20.2z M161.2,11.9l0,7.9c0.9,0.2,2.6,0.4,3.7,0c0.9-0.4,1.7-1,2.1-1.8c0.8-1.9,0.4-4.3-1.1-5.6     C164.6,11.4,162.7,11.6,161.2,11.9z M68.2,12l0,7.9c0.9,0.2,2.6,0.4,3.7,0c0.9-0.4,1.7-1,2.1-1.8c0.8-1.9,0.4-4.3-1.1-5.6     C71.6,11.5,69.7,11.7,68.2,12z M132.6,23.6l8,0l-3.9-9.7L132.6,23.6z"/>
		</defs>
		<use xlink:href="#SVGID_1_" style="overflow:visible;fill:#1A3865;"/>
		<clipPath id="SVGID_2_">
			<use xlink:href="#SVGID_1_" style="overflow:visible;"/>
		</clipPath>
	</g>
</g>
<rect x="-0.6" y="-1.1" class="st0" width="243" height="44"/>
<g>
	<path class="st1" d="M55.2,51.8h-0.5c-0.1-0.4-0.3-0.8-0.6-1.2c-0.3-0.4-0.6-0.7-0.9-0.7c-0.1,0-0.3,0-0.5,0c-0.2,0-0.4,0-0.7,0   h-1.7v4h1.1c0.3,0,0.6,0,0.8-0.1c0.2-0.1,0.4-0.2,0.5-0.3c0.1-0.1,0.2-0.3,0.3-0.5c0.1-0.2,0.1-0.4,0.2-0.7h0.5v3.9h-0.5   c0-0.2-0.1-0.4-0.1-0.7c-0.1-0.3-0.2-0.5-0.3-0.6c-0.1-0.2-0.3-0.3-0.5-0.4c-0.2-0.1-0.5-0.1-0.8-0.1h-1.1v3.4c0,0.2,0,0.3,0.1,0.4   c0.1,0.1,0.2,0.2,0.3,0.3c0.1,0,0.2,0.1,0.5,0.1c0.2,0,0.4,0.1,0.5,0.1v0.5h-4.3v-0.5c0.1,0,0.3,0,0.6,0c0.2,0,0.4,0,0.5-0.1   c0.1-0.1,0.2-0.2,0.3-0.3c0.1-0.1,0.1-0.3,0.1-0.4v-7.2c0-0.2,0-0.3-0.1-0.4c-0.1-0.1-0.2-0.2-0.3-0.3c-0.1-0.1-0.3-0.1-0.5-0.2   c-0.2,0-0.4-0.1-0.5-0.1v-0.5h7.8V51.8z"/>
	<path class="st1" d="M69.6,50.5c0.4,0.5,0.8,1,1,1.7c0.2,0.6,0.4,1.4,0.4,2.1c0,0.8-0.1,1.5-0.4,2.1c-0.3,0.6-0.6,1.2-1.1,1.6   c-0.4,0.4-0.9,0.8-1.5,1c-0.6,0.2-1.2,0.4-1.8,0.4c-0.7,0-1.3-0.1-1.9-0.4c-0.6-0.3-1.1-0.6-1.5-1.1c-0.4-0.5-0.8-1-1-1.6   c-0.2-0.6-0.4-1.3-0.4-2.1c0-0.8,0.1-1.5,0.4-2.2c0.3-0.6,0.6-1.2,1-1.6c0.4-0.5,0.9-0.8,1.5-1.1c0.6-0.2,1.2-0.4,1.8-0.4   c0.7,0,1.3,0.1,1.9,0.4C68.6,49.7,69.1,50,69.6,50.5z M68.5,57.5c0.3-0.4,0.5-0.9,0.6-1.4c0.1-0.5,0.2-1.1,0.2-1.8   c0-0.7-0.1-1.3-0.2-1.9c-0.1-0.6-0.3-1.1-0.6-1.5c-0.3-0.4-0.6-0.7-1-0.9c-0.4-0.2-0.8-0.3-1.3-0.3c-0.6,0-1,0.1-1.4,0.4   c-0.4,0.3-0.7,0.6-1,1c-0.2,0.4-0.4,0.9-0.5,1.4c-0.1,0.6-0.2,1.1-0.2,1.7c0,0.7,0.1,1.3,0.2,1.8c0.1,0.5,0.3,1,0.6,1.4   c0.3,0.4,0.6,0.7,1,1c0.4,0.2,0.8,0.3,1.4,0.3c0.5,0,1-0.1,1.4-0.4C68,58.3,68.3,57.9,68.5,57.5z"/>
	<path class="st1" d="M87.7,49.8c-0.1,0-0.3,0-0.6,0.1c-0.3,0.1-0.5,0.1-0.6,0.2c-0.2,0.1-0.3,0.3-0.3,0.7c-0.1,0.3-0.1,0.7-0.1,1.2   v4.3c0,0.6-0.1,1-0.3,1.4c-0.2,0.4-0.5,0.7-0.9,1c-0.4,0.3-0.8,0.4-1.2,0.5c-0.4,0.1-0.8,0.2-1.2,0.2c-0.6,0-1.1-0.1-1.6-0.2   c-0.5-0.2-0.9-0.4-1.2-0.6c-0.3-0.3-0.5-0.6-0.7-0.9c-0.2-0.3-0.2-0.7-0.2-1.1v-5.9c0-0.2,0-0.3-0.1-0.4c-0.1-0.1-0.2-0.2-0.3-0.3   c-0.1-0.1-0.3-0.1-0.4-0.2c-0.2,0-0.3-0.1-0.4-0.1v-0.5h4.1v0.5c-0.1,0-0.3,0-0.5,0.1c-0.2,0-0.3,0.1-0.4,0.1   c-0.2,0.1-0.3,0.1-0.3,0.3c-0.1,0.1-0.1,0.3-0.1,0.4v5.5c0,0.3,0,0.5,0.1,0.8c0.1,0.3,0.2,0.6,0.3,0.8c0.2,0.3,0.4,0.5,0.7,0.6   c0.3,0.2,0.7,0.2,1.3,0.2c0.5,0,0.9-0.1,1.3-0.2c0.3-0.2,0.6-0.4,0.8-0.6c0.2-0.3,0.3-0.5,0.4-0.8c0.1-0.3,0.1-0.6,0.1-0.8v-4.1   c0-0.5,0-0.9-0.1-1.3c-0.1-0.3-0.2-0.5-0.3-0.6c-0.2-0.1-0.4-0.2-0.7-0.3c-0.3-0.1-0.5-0.1-0.6-0.1v-0.5h4.1V49.8z"/>
	<path class="st1" d="M104.2,49.8c-0.1,0-0.3,0-0.6,0.1c-0.3,0.1-0.5,0.1-0.6,0.2c-0.2,0.1-0.3,0.3-0.3,0.7   c-0.1,0.3-0.1,0.8-0.1,1.3v7.3h-0.6l-6-8.1v5.1c0,0.6,0,1,0.1,1.3c0.1,0.3,0.2,0.5,0.3,0.7c0.1,0.1,0.3,0.2,0.7,0.3   c0.3,0.1,0.6,0.1,0.7,0.1v0.5h-4.1v-0.5c0.1,0,0.3-0.1,0.6-0.1c0.3-0.1,0.5-0.2,0.6-0.2c0.2-0.1,0.3-0.3,0.3-0.6   c0.1-0.3,0.1-0.7,0.1-1.4v-4.9c0-0.2,0-0.4-0.1-0.6c-0.1-0.2-0.2-0.4-0.3-0.5c-0.2-0.2-0.4-0.3-0.7-0.4c-0.3-0.1-0.5-0.2-0.7-0.2   v-0.5h2.8l5.6,7.6v-4.7c0-0.6,0-1-0.1-1.3c-0.1-0.3-0.2-0.5-0.3-0.6c-0.1-0.1-0.3-0.2-0.6-0.3c-0.3-0.1-0.5-0.1-0.7-0.1v-0.5h4   V49.8z"/>
	<path class="st1" d="M119.9,54.3c0,0.8-0.2,1.6-0.5,2.2c-0.3,0.6-0.7,1.1-1.2,1.5c-0.5,0.4-1.1,0.7-1.7,0.9c-0.6,0.2-1.3,0.3-2,0.3   h-4.1v-0.5c0.1,0,0.3,0,0.5,0c0.2,0,0.4-0.1,0.4-0.1c0.1-0.1,0.2-0.2,0.3-0.3c0.1-0.1,0.1-0.3,0.1-0.4v-7.2c0-0.2,0-0.3-0.1-0.4   c-0.1-0.1-0.2-0.2-0.3-0.3c-0.1-0.1-0.3-0.1-0.5-0.2c-0.2,0-0.3-0.1-0.4-0.1v-0.5h4.3c0.6,0,1.2,0.1,1.8,0.3   c0.6,0.2,1.1,0.4,1.5,0.7c0.6,0.4,1,1,1.4,1.6C119.8,52.6,119.9,53.4,119.9,54.3z M118.2,54.3c0-0.7-0.1-1.3-0.3-1.8   c-0.2-0.5-0.4-1-0.8-1.4c-0.3-0.4-0.7-0.7-1.2-0.9c-0.5-0.2-1-0.3-1.6-0.3c-0.2,0-0.4,0-0.6,0c-0.2,0-0.4,0-0.5,0v7.6   c0,0.4,0.1,0.7,0.4,0.9c0.2,0.2,0.6,0.2,1.1,0.2c0.6,0,1.1-0.1,1.6-0.3c0.4-0.2,0.8-0.5,1.1-0.9c0.3-0.4,0.5-0.8,0.6-1.4   C118.2,55.6,118.2,55,118.2,54.3z"/>
	<path class="st1" d="M135.9,59.2h-4.1v-0.5c0.4,0,0.7-0.1,0.9-0.1s0.4-0.2,0.4-0.3c0,0,0-0.1,0-0.2c0-0.1,0-0.1,0-0.2l-0.8-2.2   h-3.5c-0.1,0.3-0.2,0.6-0.3,0.9c-0.1,0.2-0.2,0.5-0.2,0.7c-0.1,0.2-0.1,0.4-0.1,0.5c0,0.1,0,0.2,0,0.3c0,0.2,0.1,0.3,0.4,0.4   c0.3,0.1,0.6,0.2,1,0.2v0.5h-3.7v-0.5c0.1,0,0.3,0,0.5-0.1c0.2,0,0.3-0.1,0.4-0.2c0.2-0.1,0.3-0.3,0.4-0.4c0.1-0.1,0.2-0.3,0.3-0.6   c0.5-1.2,1.1-2.6,1.7-4.2c0.6-1.6,1.1-2.9,1.6-4.2h0.6l3.3,8.6c0.1,0.2,0.1,0.3,0.2,0.4c0.1,0.1,0.2,0.2,0.4,0.3   c0.1,0.1,0.2,0.1,0.4,0.2c0.2,0,0.3,0.1,0.4,0.1V59.2z M131.9,55.2l-1.5-3.9l-1.5,3.9H131.9z"/>
	<path class="st1" d="M149.8,52h-0.5c0-0.2-0.1-0.4-0.2-0.6c-0.1-0.2-0.2-0.4-0.4-0.7c-0.1-0.2-0.3-0.4-0.5-0.6   c-0.2-0.2-0.3-0.3-0.5-0.3c-0.1,0-0.3,0-0.5,0c-0.2,0-0.4,0-0.6,0h-0.4v7.9c0,0.2,0,0.3,0.1,0.4c0.1,0.1,0.2,0.2,0.3,0.3   c0.1,0,0.3,0.1,0.5,0.1s0.5,0.1,0.6,0.1v0.5h-4.7v-0.5c0.1,0,0.3,0,0.6-0.1c0.3,0,0.5-0.1,0.6-0.1c0.2-0.1,0.3-0.1,0.3-0.3   c0.1-0.1,0.1-0.3,0.1-0.5v-8h-0.4c-0.1,0-0.3,0-0.5,0c-0.2,0-0.4,0-0.6,0c-0.2,0-0.3,0.1-0.5,0.3c-0.2,0.2-0.3,0.4-0.5,0.6   c-0.1,0.2-0.3,0.4-0.4,0.7c-0.1,0.2-0.2,0.4-0.2,0.6h-0.5v-2.7h8.7V52z"/>
	<path class="st1" d="M160.3,59.2h-4.5v-0.5c0.1,0,0.3,0,0.5,0c0.2,0,0.4,0,0.5-0.1c0.2-0.1,0.3-0.1,0.3-0.2   c0.1-0.1,0.1-0.3,0.1-0.4v-7.2c0-0.2,0-0.3-0.1-0.4c-0.1-0.1-0.2-0.2-0.4-0.3c-0.1-0.1-0.3-0.1-0.5-0.2c-0.2,0-0.4-0.1-0.5-0.1   v-0.5h4.5v0.5c-0.1,0-0.3,0-0.5,0.1c-0.2,0-0.4,0.1-0.5,0.1c-0.2,0.1-0.3,0.1-0.4,0.3c-0.1,0.1-0.1,0.3-0.1,0.4v7.2   c0,0.2,0,0.3,0.1,0.4c0.1,0.1,0.2,0.2,0.3,0.3c0.1,0,0.3,0.1,0.5,0.1c0.2,0,0.4,0.1,0.6,0.1V59.2z"/>
	<path class="st1" d="M175.1,50.5c0.4,0.5,0.8,1,1,1.7c0.2,0.6,0.4,1.4,0.4,2.1c0,0.8-0.1,1.5-0.4,2.1c-0.3,0.6-0.6,1.2-1.1,1.6   c-0.4,0.4-0.9,0.8-1.5,1c-0.6,0.2-1.2,0.4-1.8,0.4c-0.7,0-1.3-0.1-1.9-0.4c-0.6-0.3-1.1-0.6-1.5-1.1c-0.4-0.5-0.8-1-1-1.6   c-0.2-0.6-0.4-1.3-0.4-2.1c0-0.8,0.1-1.5,0.4-2.2c0.3-0.6,0.6-1.2,1-1.6c0.4-0.5,0.9-0.8,1.5-1.1c0.6-0.2,1.2-0.4,1.8-0.4   c0.7,0,1.3,0.1,1.9,0.4C174.1,49.7,174.6,50,175.1,50.5z M174,57.5c0.3-0.4,0.5-0.9,0.6-1.4c0.1-0.5,0.2-1.1,0.2-1.8   c0-0.7-0.1-1.3-0.2-1.9s-0.3-1.1-0.6-1.5c-0.3-0.4-0.6-0.7-1-0.9c-0.4-0.2-0.8-0.3-1.3-0.3c-0.6,0-1,0.1-1.4,0.4   c-0.4,0.3-0.7,0.6-1,1c-0.2,0.4-0.4,0.9-0.5,1.4c-0.1,0.6-0.2,1.1-0.2,1.7c0,0.7,0.1,1.3,0.2,1.8c0.1,0.5,0.3,1,0.6,1.4   c0.3,0.4,0.6,0.7,1,1c0.4,0.2,0.8,0.3,1.4,0.3c0.5,0,1-0.1,1.4-0.4C173.4,58.3,173.8,57.9,174,57.5z"/>
	<path class="st1" d="M193.4,49.8c-0.1,0-0.3,0-0.6,0.1c-0.3,0.1-0.5,0.1-0.6,0.2c-0.2,0.1-0.3,0.3-0.3,0.7   c-0.1,0.3-0.1,0.8-0.1,1.3v7.3h-0.6l-6-8.1v5.1c0,0.6,0,1,0.1,1.3c0.1,0.3,0.2,0.5,0.3,0.7c0.1,0.1,0.3,0.2,0.7,0.3   c0.3,0.1,0.6,0.1,0.7,0.1v0.5h-4.1v-0.5c0.1,0,0.3-0.1,0.6-0.1c0.3-0.1,0.5-0.2,0.6-0.2c0.2-0.1,0.3-0.3,0.3-0.6   c0.1-0.3,0.1-0.7,0.1-1.4v-4.9c0-0.2,0-0.4-0.1-0.6c-0.1-0.2-0.2-0.4-0.3-0.5c-0.2-0.2-0.4-0.3-0.7-0.4c-0.3-0.1-0.5-0.2-0.7-0.2   v-0.5h2.8l5.6,7.6v-4.7c0-0.6,0-1-0.1-1.3c-0.1-0.3-0.2-0.5-0.3-0.6c-0.1-0.1-0.3-0.2-0.6-0.3c-0.3-0.1-0.5-0.1-0.7-0.1v-0.5h4   V49.8z"/>
</g>
</svg>