<svg class="text-white logo" width="213" height="35" viewBox="0 0 582 96" fill="none" xmlns="http://www.w3.org/2000/svg">
  <g clip-path="url(#clip0_28467_759)">
    <path d="M404.954 48.5183C411.131 55.8583 417.597 65.9767 425.225 71.6579C417.183 72.6117 412.043 63.1983 408.809 59.0099C406.156 55.5266 404.291 52.8726 401.182 50.3015C400.685 49.8453 400.104 49.5551 399.482 49.3477C397.41 49.3892 395.296 49.3477 393.223 49.1818L393.264 69.3356C393.306 70.165 393.555 70.9944 394.011 71.6579H388.663C389.078 70.9529 389.326 70.1235 389.368 69.3356L389.409 27.784L388.373 26.5399C396.871 26.4985 405.825 24.7983 410.882 31.3918C413.411 34.9166 413.411 40.8052 410.841 44.4959C409.348 46.4449 407.317 47.8549 404.954 48.5183ZM393.596 28.2402L393.555 47.606C395.752 48.1866 400.021 48.5183 402.757 47.689C404.913 46.7352 406.861 45.2423 407.856 43.2104C409.846 38.5244 408.851 32.6773 405.162 29.4842C401.97 27.0376 397.451 27.4937 393.596 28.2402Z" fill="currentColor"></path>
    <path d="M53.35 0C23.9184 0 0 21.5222 0 48.0207C0 74.5192 23.9184 96 53.35 96H528.65C558.082 96 582 74.4778 582 47.9793C582 21.4808 558.082 0 528.65 0H53.35ZM3.89658 48.0207C3.89658 23.6786 26.0739 3.89806 53.35 3.89806H528.65C555.926 3.89806 578.062 23.6786 578.062 47.9793C578.062 72.2799 555.885 92.0605 528.65 92.0605H53.35C26.0739 92.1019 3.89658 72.3214 3.89658 48.0207ZM516.421 71.8238C517.25 71.2017 517.292 70.9944 517.292 70.4138V43.3348C512.608 37.4462 510.245 31.2259 504.732 26.7473L511.82 26.7058C510.908 27.4523 510.494 28.2402 511.281 29.3598L519.903 41.4272L529.065 29.4428C529.769 28.406 530.806 27.4937 529.479 26.6644L534.951 26.6229C529.645 31.5991 525.914 37.4462 521.188 43.5006V70.2894C521.188 70.9529 521.313 71.2017 522.266 71.7823H516.421V71.8238ZM278.564 29.1525C278.979 30.4795 279.103 31.8479 278.937 33.2164C276.782 31.3503 274.626 30.2721 271.849 29.3184C263.517 27.0376 253.609 27.9914 248.221 35.1654C243.578 41.3028 242.334 49.3477 244.946 56.6048C247.309 62.7006 249.879 65.3961 254.77 67.9672C261.029 70.7041 270.398 72.114 276.491 67.8013L280.015 65.2717C279.6 67.7598 279.642 68.5892 279.435 70.165C267.703 73.6484 252.615 73.8143 244.448 63.8203C238.811 56.1901 238.023 45.4911 242.541 37.2803C246.894 29.8989 253.817 26.3741 261.278 26.2911C269.113 26.1667 272.636 27.0376 278.564 29.1525ZM455.817 48.7672L455.776 69.5015L467.673 69.543C468.626 69.543 468.709 69.2112 469.662 68.7551C469.455 69.8333 469.248 71.3261 468.087 71.8238H451.257L452.045 70.6626V28.6549C452.045 27.9084 452.003 27.3279 451.091 26.6644L467.838 26.7058V29.6916C467.134 28.9866 466.595 29.0695 465.434 28.9866L455.817 28.9037V45.9473L467.092 45.9888C468.585 45.9888 468.833 45.9058 469.124 45.5326V49.1819C468.792 48.6842 468.294 48.7257 467.631 48.7257L455.817 48.7672ZM329.51 26.2497C335.645 40.1832 346.547 67.3451 347.252 68.838C347.583 69.6259 347.791 70.4968 349.739 71.7408H342.112C343.148 70.4553 343.023 69.2112 342.609 67.8842L339.044 59.4661L317.115 59.549C315.955 62.0786 313.343 66.6816 312.431 69.3356C311.975 70.4553 312.224 71.0359 312.721 71.6579H308.079C309.032 70.7456 309.861 69.6674 310.441 68.5063L329.51 26.2497ZM160.257 69.5015C160.299 70.3309 160.547 71.1603 161.003 71.8238H155.656C156.071 71.1188 156.319 70.2894 156.361 69.5015L156.402 27.9499L155.366 26.7058C163.864 26.6644 172.776 24.9641 177.875 31.5577C180.403 35.0825 180.403 40.9711 177.833 44.6618C173.895 49.9283 166.434 49.7624 160.216 49.3477L160.257 69.5015ZM189.191 72.6531C187.989 72.6531 187.036 71.4505 187.036 69.9577C187.036 68.4648 188.031 67.2622 189.191 67.2622C190.352 67.2622 191.347 68.4648 191.347 69.9577C191.347 71.4505 190.394 72.6531 189.191 72.6531ZM114.037 72.6531C112.835 72.6531 111.882 71.4505 111.882 69.9577C111.882 68.4648 112.835 67.2622 114.037 67.2622C115.239 67.2622 116.193 68.4648 116.193 69.9577C116.193 71.4505 115.239 72.6531 114.037 72.6531ZM89.5799 65.479L107.612 30.9771C109.27 27.9084 109.104 27.3693 108.938 26.7058H113.084L111.965 28.0743L88.5021 71.7408L80.2115 55.568L71.6308 71.7408L51.4846 31.1015C50.4483 29.194 50.1996 28.0328 48.7487 26.7473C51.5675 26.7473 55.1739 26.7473 55.1739 26.7473C53.6816 27.9084 54.3863 28.7793 55.7128 31.3089L72.6671 65.3546L78.885 52.7896C70.1799 34.0873 70.2628 34.3775 68.8534 31.143C68.2731 29.816 67.3197 27.7011 65.9103 26.7888H72.1282C70.6774 28.1987 71.8795 29.194 72.3769 30.3136L81.4137 49.1404L90.6577 31.0186C92.3158 27.9499 92.1915 27.4523 92.0256 26.7888L96.1295 26.7473L95.0517 28.1158L82.8645 51.7944C82.7816 51.7529 87.0513 61.0004 89.5799 65.479ZM160.299 28.2816L160.257 47.6475C162.454 48.2281 166.724 48.5598 169.46 47.7305C171.615 46.7767 173.564 45.2838 174.559 43.2518C176.548 38.5659 175.553 32.7188 171.864 29.5257C168.672 27.079 164.154 27.5352 160.299 28.2816ZM318.483 56.8536L338.132 56.9365L328.639 33.0505L318.483 56.8536Z" fill="currentColor"></path>
  </g>
  <defs>
  <clipPath id="clip0_28467_759">
    <rect width="582" height="96" fill="currentColor"></rect>
  </clipPath>
  </defs>
</svg>